<?xml version="1.0" encoding="UTF-8" standalone="no"?>
<!-- Created with Inkscape (http://www.inkscape.org/) -->

<svg
   width="600"
   height="600"
   viewBox="0 0 158.75001 158.74999"
   version="1.1"
   id="svg2711"
   sodipodi:docname="logo_round_cyan.svg"
   inkscape:export-filename="logo_round_cyan.png"
   inkscape:export-xdpi="96"
   inkscape:export-ydpi="96"
   inkscape:version="1.2.2 (b0a8486541, 2022-12-01)"
   xmlns:inkscape="http://www.inkscape.org/namespaces/inkscape"
   xmlns:sodipodi="http://sodipodi.sourceforge.net/DTD/sodipodi-0.dtd"
   xmlns="http://www.w3.org/2000/svg"
   xmlns:svg="http://www.w3.org/2000/svg">
  <sodipodi:namedview
     id="namedview10"
     pagecolor="#ffffff"
     bordercolor="#000000"
     borderopacity="0.25"
     inkscape:showpageshadow="2"
     inkscape:pageopacity="0.0"
     inkscape:pagecheckerboard="0"
     inkscape:deskcolor="#d1d1d1"
     showgrid="false"
     inkscape:zoom="0.39333333"
     inkscape:cx="49.576271"
     inkscape:cy="301.27119"
     inkscape:window-width="1914"
     inkscape:window-height="1093"
     inkscape:window-x="0"
     inkscape:window-y="72"
     inkscape:window-maximized="1"
     inkscape:current-layer="svg2711" />
  <defs
     id="defs2708" />
  <g
     id="g5"
     transform="translate(-646.36677)">
    <circle
       style="display:inline;fill:none;fill-opacity:1;stroke:#7fffff;stroke-width:4.23333;stroke-dasharray:none;stroke-opacity:1"
       id="circle2"
       cx="-154.31413"
       cy="285.75"
       transform="translate(880.0559,-206.37501)"
       r="77.258331" />
    <circle
       style="fill:#0e0e41;fill-opacity:1;stroke:none;stroke-width:0.264583"
       id="circle3"
       cx="-154.31413"
       cy="285.75"
       transform="translate(880.0559,-206.37501)"
       r="75.14167" />
    <g
       id="g4"
       transform="matrix(0.82138787,0,0,0.82138787,662.61049,-84.976652)"
       style="display:inline">
      <path
         id="path3"
         style="display:inline;fill:#7fffff;fill-opacity:1;stroke:#7fffff;stroke-width:0.527822;stroke-opacity:1;paint-order:stroke fill markers"
         d="m 14.287095,195.92195 v 41.88478 H 139.43139 v -41.88478 z m 46.849336,6.08593 c 2.129159,0 4.114892,0.38266 5.956742,1.15239 1.853812,0.73598 3.472536,1.79079 4.847767,3.16415 1.402904,1.34789 2.485055,2.92554 3.254064,4.73821 0.770073,1.78764 1.154452,3.7249 1.154452,5.80275 0,2.07989 -0.383625,4.02507 -1.154452,5.84202 -0.77011,1.78778 -1.850452,3.36203 -3.24993,4.73407 -1.37397,1.34649 -2.994123,2.40474 -4.853451,3.17035 -1.844374,0.74327 -3.828523,1.10898 -5.955192,1.10898 -2.126669,0 -4.112317,-0.36716 -5.953125,-1.10898 -1.838082,-0.76811 -3.455565,-1.82314 -4.85345,-3.16621 l -0.0041,-0.004 -0.0036,-0.002 c -1.369243,-1.36924 -2.448628,-2.9456 -3.242179,-4.72426 -0.774716,-1.82589 -1.158586,-3.76988 -1.158586,-5.84977 0,-2.07785 0.383231,-4.01449 1.154452,-5.80482 0.795202,-1.80981 1.877286,-3.38888 3.249931,-4.73408 1.400725,-1.37325 3.019349,-2.4275 4.857584,-3.16828 1.835724,-0.76721 3.823965,-1.15032 5.953125,-1.15032 z m 31.168123,0.0408 v 5.2e-4 c 2.098791,0 4.177366,0.35458 6.241997,1.06091 2.087069,0.70471 3.940809,1.68268 5.552629,2.93936 l 0.40256,0.31419 -3.71295,5.14077 -0.4315,-0.33021 c -2.842168,-2.17039 -5.647797,-3.22461 -8.451161,-3.22461 -0.986779,0 -1.827196,0.12665 -2.525427,0.36742 -0.703265,0.24251 -1.214873,0.5691 -1.564763,0.96273 -0.314026,0.3559 -0.460953,0.75084 -0.460953,1.27538 0,0.35968 0.06326,0.65712 0.179834,0.91002 0.114605,0.24863 0.281474,0.45969 0.519348,0.64854 l 0.0021,0.002 c 0.485966,0.35819 1.440539,0.70286 2.826184,0.9338 l 5.240507,0.87281 c 2.837515,0.45939 5.030221,1.3783 6.509681,2.80087 1.48946,1.40349 2.22467,3.26541 2.22467,5.53919 0,1.89974 -0.50503,3.58144 -1.52549,5.02709 -1.02293,1.42078 -2.46432,2.50532 -4.316531,3.27938 -1.826956,0.74741 -3.96136,1.11311 -6.394442,1.11311 -2.315572,0 -4.574415,-0.42245 -6.777364,-1.26555 -2.208631,-0.87252 -4.168945,-2.09804 -5.884912,-3.67782 l -0.361218,-0.33382 3.947046,-4.94699 0.418062,0.36897 c 1.582833,1.4012 3.088448,2.40019 4.502051,3.00602 1.440936,0.6067 2.953147,0.91002 4.552693,0.91002 1.123604,0 2.078078,-0.13106 2.859257,-0.37517 0.773376,-0.268 1.327377,-0.62658 1.699638,-1.06454 l 0.0036,-0.006 0.0062,-0.006 c 0.396741,-0.44083 0.577743,-0.91705 0.577742,-1.5136 10e-7,-0.41267 -0.07304,-0.75024 -0.206706,-1.03302 -0.133664,-0.28278 -0.327931,-0.51643 -0.607714,-0.72088 l -0.0057,-0.004 -0.0041,-0.004 c -0.561201,-0.4317 -1.677141,-0.84479 -3.302641,-1.12861 l -5.513875,-0.95343 c -2.431099,-0.40973 -4.344994,-1.27889 -5.687508,-2.64997 -1.328036,-1.38573 -1.974557,-3.15932 -1.974557,-5.29322 0,-1.81618 0.462448,-3.41582 1.402499,-4.78317 0.968781,-1.36778 2.30535,-2.39154 4.00389,-3.08767 1.715378,-0.71937 3.735668,-1.07073 6.037357,-1.07073 z m 28.349176,0 v 5.2e-4 c 2.09878,0 4.17985,0.35455 6.24458,1.06091 2.08716,0.70474 3.9389,1.68281 5.55056,2.93936 l 0.40256,0.31419 -3.71295,5.14077 -0.43201,-0.33021 c -2.84226,-2.17046 -5.64574,-3.22461 -8.4491,-3.22461 -0.98678,0 -1.82952,0.12674 -2.52749,0.36742 -0.70327,0.24251 -1.21436,0.5691 -1.56425,0.96273 -0.31346,0.35525 -0.45889,0.74975 -0.45889,1.27538 0,0.36009 0.0637,0.6572 0.17984,0.91002 0.1142,0.24856 0.27963,0.45986 0.51728,0.64854 l 0.002,0.002 c 0.48555,0.35788 1.44253,0.70284 2.82825,0.9338 l 5.23792,0.87281 c 2.83748,0.45939 5.03074,1.3783 6.5102,2.80087 1.48928,1.40332 2.22622,3.26509 2.22622,5.53919 0,1.90013 -0.50678,3.58172 -1.52704,5.02709 -1.02293,1.42078 -2.46432,2.50532 -4.31653,3.27938 -1.82696,0.74741 -3.96136,1.11311 -6.39444,1.11311 -2.31557,0 -4.57442,-0.42245 -6.77737,-1.26555 -2.20863,-0.87252 -4.16894,-2.09804 -5.88491,-3.67782 l -0.36122,-0.33382 3.94911,-4.94699 0.41807,0.36897 c 1.583,1.40134 3.08654,2.40026 4.49998,3.00602 1.44079,0.60664 2.95522,0.91002 4.55476,0.91002 1.1236,0 2.07579,-0.13099 2.85719,-0.37517 0.77364,-0.26808 1.32942,-0.62715 1.70119,-1.06454 l 0.004,-0.006 0.006,-0.006 c 0.39626,-0.44029 0.5762,-0.91608 0.5762,-1.5136 0,-0.41266 -0.0736,-0.75024 -0.20723,-1.03302 -0.13366,-0.28278 -0.32793,-0.51643 -0.60771,-0.72088 l -0.006,-0.004 -0.004,-0.004 c -0.56159,-0.43199 -1.67514,-0.84481 -3.30057,-1.12861 l -5.51595,-0.95343 c -2.43118,-0.40975 -4.34312,-1.27909 -5.68544,-2.64997 -1.32784,-1.38552 -1.97662,-3.15898 -1.97662,-5.29322 0,-1.81618 0.46245,-3.41582 1.4025,-4.78317 0.969,-1.36808 2.30757,-2.3916 4.00596,-3.08767 1.71524,-0.71932 3.73308,-1.07073 6.03477,-1.07073 z m -100.144276,0.39687 h 22.529374 v 6.05855 h -15.71687 v 5.4901 h 10.437606 v 5.90042 H 27.321958 v 11.39052 h -6.812504 z m 40.626977,5.8999 c -1.175857,0 -2.248809,0.22372 -3.236495,0.66818 l -0.0036,0.002 -0.0062,0.002 c -0.995911,0.42326 -1.860178,1.01472 -2.605526,1.78491 -0.747863,0.74797 -1.329829,1.63821 -1.755448,2.68975 -0.423368,1.02111 -0.635104,2.12588 -0.635104,3.33365 0,1.23549 0.212242,2.36748 0.635104,3.4122 0.426141,1.05282 1.009918,1.95812 1.755448,2.72851 0.739249,0.73914 1.606142,1.33438 2.605526,1.78542 0.0024,0.001 0.0053,0.001 0.0078,0.002 l 0.0021,0.002 c 0.987265,0.418 2.0609,0.6289 3.236495,0.6289 1.204232,0 2.290741,-0.2124 3.277319,-0.63045 1.00222,-0.45134 1.869985,-1.04781 2.617412,-1.79524 0.739445,-0.7642 1.323623,-1.66794 1.749764,-2.72076 0.423583,-1.0465 0.636653,-2.16569 0.636653,-3.37292 0,-1.23495 -0.213262,-2.35317 -0.634586,-3.36931 -0.427315,-1.05567 -1.010051,-1.94334 -1.751831,-2.68511 -0.751732,-0.77669 -1.613964,-1.37 -2.60966,-1.79317 l -0.0057,-0.002 -0.0041,-0.002 c -0.986252,-0.44381 -2.071527,-0.66766 -3.275252,-0.66766 z" />
      <path
         id="path4"
         style="font-weight:bold;font-size:39.6875px;font-family:Manjari;-inkscape-font-specification:'Manjari Bold';font-feature-settings:salt 2;text-align:center;text-anchor:middle;display:inline;fill:#7fffff;fill-opacity:1;stroke:#7fffff;stroke-width:0.529167;stroke-dasharray:none;stroke-opacity:1;paint-order:stroke fill markers"
         d="m 32.611448,24.612441 c -6.58875,0 -12.247318,5.44566 -12.247318,12.22819 0,4.80591 3.255615,9.24337 8.255308,9.24337 4.03076,0 7.42177,-3.29438 7.42177,-7.40265 0,-4.16641 -3.42976,-7.55768 -7.53804,-7.55768 -0.69763,0 -1.49242,0.0775 -2.69389,0.8139 1.43402,-2.51922 4.16641,-3.48816 6.74377,-3.48816 0.16601,0 0.33048,0.007 0.49403,0.0165 4.37968,0.26563 7.79778,3.9528 7.79797,8.41448 -0.009,2.57731 -1.15862,4.89211 -2.97243,6.43681 l 2.76314,2.76314 c 2.52164,-2.25343 4.10605,-5.53942 4.10673,-9.18755 -0.001,-6.5884 -5.16184,-12.00213 -11.69541,-12.26902 -0.14491,-0.005 -0.28965,-0.0114 -0.43563,-0.0114 z m -4.12792,10.42572 c 1.97663,0 3.68195,1.62781 3.68195,3.64319 0,1.95724 -1.60817,3.54655 -3.54604,3.54655 -1.80221,0 -3.91449,-1.53117 -3.91449,-3.39152 0,-2.18979 1.74382,-3.79822 3.77858,-3.79822 z M 65.57201,24.557524 c -4.6315,0 -7.4799,3.66283 -8.42946,7.34477 -4.72839,0.17441 -9.37927,2.55773 -9.37927,7.61556 0,3.64319 3.00343,6.58874 6.64662,6.58874 2.07352,0 4.05014,-1.00743 5.271,-2.5771 1.33713,1.37588 3.4494,2.5771 5.89111,2.5771 5.58106,0 8.77853,-5.11571 8.87543,-10.32857 1.84097,0.23255 3.441884,1.298384 3.4494,3.33313 0.0063,1.701311 -1.306819,2.774546 -3.162326,3.295843 -0.05198,0.0146 -0.151735,0.04263 -0.227603,0.06394 l 1.505942,3.635665 c 3.448839,-0.890837 5.759717,-3.596277 5.759717,-6.995427 0,-4.49585 -3.52665,-7.03472 -7.77058,-7.26726 -0.96894,-3.66257 -3.79848,-7.28638 -8.42998,-7.28638 z m -0.0191,3.87573 c 2.22855,0 3.68169,1.72496 4.35994,3.39153 l -8.68164,0.0388 c 0.67825,-1.66657 2.09315,-3.43029 4.3217,-3.43029 z m 5.01882,7.26726 c -0.0581,3.19748 -1.72445,6.53035 -5.01882,6.53035 -3.25562,0 -4.90306,-3.23598 -4.98057,-6.49159 z m -13.87513,0.11627 c 0.0194,1.1821 0.50385,2.34456 0.50385,3.54604 0,1.60843 -1.27874,2.86804 -2.84841,2.86804 -1.49215,0 -2.71301,-1.23998 -2.71301,-2.73213 0,-2.53861 2.59648,-3.48816 5.05757,-3.68195 z M 92.596116,24.533499 c -4.03076,0 -6.84345,3.241781 -7.66723,6.924642 -0.20327,0.91084 0.14709,-0.66286 -0.0935,0.416512 l 3.52795,1.461409 c 0.0587,-0.262246 0.34231,-1.014561 0.51211,-1.516186 0.58616,-1.731663 1.74381,-3.410645 3.70107,-3.410645 4.90253,0 5.07674,6.310214 5.07772,7.170105 h -5.1e-4 c 0,3.274994 -1.72471,6.724654 -5.07721,6.724654 -1.95726,0 -3.11491,-1.678981 -3.70107,-3.410644 -0.1698,-0.501625 -0.45341,-1.253941 -0.51211,-1.516187 l -3.52795,1.46141 c 0.24062,1.079372 -0.10974,-0.494328 0.0935,0.416512 0.82378,3.682861 3.63647,6.924641 7.66723,6.924641 h 5.2e-4 c 5.65856,0 8.933304,-5.251617 8.933304,-10.580749 0,-5.820102 -3.114954,-11.065474 -8.933304,-11.065474 z m 30.971534,0.581354 c -2.59674,0 -4.68964,1.298622 -5.92987,2.848922 -0.65888,-0.79452 -1.47304,-1.434019 -2.42259,-1.899109 -0.83856,-0.4043 -1.69985,-0.652765 -2.5399,-0.73949 l 5.2e-4,-5.16e-4 c -0.37131,-0.05725 -0.74657,-0.08611 -1.12242,-0.0863 -4.0135,3.3e-5 -7.26711,3.198117 -7.26725,7.143233 0.006,2.333411 1.39239,4.36108 3.03865,5.923484 l 3.10113,-2.247319 c 0,0 -0.33509,-0.453209 -1.03312,-1.33884 -0.55876,-0.70893 -1.0808,-1.428742 -1.08004,-2.307869 0.001,-1.428381 1.02389,-2.67662 2.47737,-3.018421 0.37412,-0.100256 0.76853,-0.153479 1.16944,-0.153479 0.52323,0 1.04671,0.116533 1.56993,0.368453 1.72471,0.83328 2.15077,2.541698 2.18953,5.119068 l 0.016,3.541385 h 3.90829 l 0.01,-3.541385 c 0.0194,-2.65488 0.46508,-4.437454 2.20916,-5.328874 0.5426,-0.29068 1.12372,-0.40721 1.68569,-0.40721 1.33713,0 2.597,0.697889 3.35277,1.724959 0.62012,0.83328 0.87178,1.724701 0.87178,2.596741 0,1.5503 -0.83328,3.061826 -1.86035,4.108276 -2.84867,2.86804 -8.56537,4.747768 -13.41004,4.805908 l -8.21603,0.07752 v 3.875732 h 34.29971 V 25.114853 h -3.92999 c 0,0 0.0227,12.157062 0.0357,17.189132 h -8.77828 c 2.44171,-1.51154 4.74777,-3.759454 5.50354,-6.898804 0.15503,-0.65887 0.23254,-1.33739 0.23254,-1.99626 0,-1.78284 -0.54259,-3.546295 -1.6278,-4.999695 -1.49215,-2.01539 -3.85636,-3.274994 -6.39496,-3.294373 z m 13.48976,-7.925611 c -5.37816,0 -8.52615,5.780253 -8.52615,5.780253 l 2.81888,2.276856 c 0.23438,-0.317917 0.67253,-0.872692 1.24957,-1.621466 0.75556,-0.980426 2.07406,-2.540531 4.49646,-2.540531 3.52691,0 4.49836,3.197588 4.49836,6.840778 l 0.0363,18.25459 h 3.87571 c 0,0 -0.0231,-12.763968 -0.0362,-18.25459 -0.0317,-9.677303 -6.13547,-10.73589 -8.41293,-10.73589 z"
         transform="translate(-6.0768674,144.39587)" />
    </g>
  </g>
</svg>
